<mxfile host="65bd71144e">
    <diagram id="ExdccTZqctQwAvQB16s_" name="Page-1">
        <mxGraphModel dx="3235" dy="1617" grid="0" gridSize="10" guides="1" tooltips="1" connect="1" arrows="1" fold="1" page="0" pageScale="1" pageWidth="827" pageHeight="1169" math="0" shadow="0">
            <root>
                <mxCell id="0"/>
                <mxCell id="1" parent="0"/>
                <mxCell id="2M91R3iAnrZrVvDSjcHK-1" value="Victim node" style="rounded=0;whiteSpace=wrap;html=1;fontStyle=1" parent="1" vertex="1">
                    <mxGeometry y="120" width="120" height="41" as="geometry"/>
                </mxCell>
                <mxCell id="2M91R3iAnrZrVvDSjcHK-2" value="Attacker node" style="rounded=0;whiteSpace=wrap;html=1;fontStyle=1" parent="1" vertex="1">
                    <mxGeometry x="360" y="121" width="120" height="39" as="geometry"/>
                </mxCell>
                <mxCell id="2M91R3iAnrZrVvDSjcHK-28" value="" style="endArrow=none;dashed=1;html=1;fontSize=12;entryX=0.5;entryY=1;entryDx=0;entryDy=0;" parent="1" target="2M91R3iAnrZrVvDSjcHK-1" edge="1">
                    <mxGeometry width="50" height="50" relative="1" as="geometry">
                        <mxPoint x="60" y="1070" as="sourcePoint"/>
                        <mxPoint x="80" y="230" as="targetPoint"/>
                    </mxGeometry>
                </mxCell>
                <mxCell id="2M91R3iAnrZrVvDSjcHK-29" value="" style="endArrow=none;dashed=1;html=1;fontSize=12;entryX=0.5;entryY=1;entryDx=0;entryDy=0;" parent="1" target="2M91R3iAnrZrVvDSjcHK-2" edge="1">
                    <mxGeometry width="50" height="50" relative="1" as="geometry">
                        <mxPoint x="420" y="1060" as="sourcePoint"/>
                        <mxPoint x="70" y="171" as="targetPoint"/>
                    </mxGeometry>
                </mxCell>
                <mxCell id="10" value="The attacker node attempts to add his node id to the victim node's routing table as &quot;outbound&quot;." style="shape=note;whiteSpace=wrap;html=1;backgroundOutline=1;darkOpacity=0.05;" parent="1" vertex="1">
                    <mxGeometry x="270" y="10" width="360" height="90" as="geometry"/>
                </mxCell>
                <mxCell id="11" value="" style="endArrow=classic;html=1;" parent="1" edge="1">
                    <mxGeometry width="50" height="50" relative="1" as="geometry">
                        <mxPoint x="420" y="240" as="sourcePoint"/>
                        <mxPoint x="60" y="240" as="targetPoint"/>
                    </mxGeometry>
                </mxCell>
                <mxCell id="13" value="Random packet" style="edgeLabel;html=1;align=center;verticalAlign=middle;resizable=0;points=[];fontSize=13;" vertex="1" connectable="0" parent="11">
                    <mxGeometry x="-0.2167" y="-2" relative="1" as="geometry">
                        <mxPoint x="81" y="-18" as="offset"/>
                    </mxGeometry>
                </mxCell>
                <mxCell id="12" value="" style="endArrow=classic;html=1;" edge="1" parent="1">
                    <mxGeometry width="50" height="50" relative="1" as="geometry">
                        <mxPoint x="60" y="280" as="sourcePoint"/>
                        <mxPoint x="420" y="280" as="targetPoint"/>
                    </mxGeometry>
                </mxCell>
                <mxCell id="14" value="WHOAREYOU" style="edgeLabel;html=1;align=center;verticalAlign=middle;resizable=0;points=[];fontSize=13;" vertex="1" connectable="0" parent="12">
                    <mxGeometry x="0.2111" y="2" relative="1" as="geometry">
                        <mxPoint x="-168" y="-8" as="offset"/>
                    </mxGeometry>
                </mxCell>
                <mxCell id="15" value="Generate a new session" style="html=1;dashed=0;whitespace=wrap;fontSize=13;" vertex="1" parent="1">
                    <mxGeometry x="310" y="320" width="200" height="50" as="geometry"/>
                </mxCell>
                <mxCell id="16" value="" style="endArrow=classic;html=1;" edge="1" parent="1">
                    <mxGeometry width="50" height="50" relative="1" as="geometry">
                        <mxPoint x="420" y="439.5" as="sourcePoint"/>
                        <mxPoint x="60" y="439.5" as="targetPoint"/>
                    </mxGeometry>
                </mxCell>
                <mxCell id="17" value="Authentication resonse" style="edgeLabel;html=1;align=center;verticalAlign=middle;resizable=0;points=[];fontSize=13;" vertex="1" connectable="0" parent="16">
                    <mxGeometry x="-0.2167" y="-2" relative="1" as="geometry">
                        <mxPoint x="61" y="-17" as="offset"/>
                    </mxGeometry>
                </mxCell>
                <mxCell id="18" value="Establish a session.&lt;br&gt;Add attacker node id to the routing table as &quot;incoming&quot;." style="html=1;dashed=0;whitespace=wrap;fontSize=13;" vertex="1" parent="1">
                    <mxGeometry x="-120" y="470" width="360" height="60" as="geometry"/>
                </mxCell>
                <mxCell id="20" value="" style="endArrow=classic;html=1;" edge="1" parent="1">
                    <mxGeometry width="50" height="50" relative="1" as="geometry">
                        <mxPoint x="60" y="560" as="sourcePoint"/>
                        <mxPoint x="420" y="560" as="targetPoint"/>
                    </mxGeometry>
                </mxCell>
                <mxCell id="21" value="Response" style="edgeLabel;html=1;align=center;verticalAlign=middle;resizable=0;points=[];fontSize=13;" vertex="1" connectable="0" parent="20">
                    <mxGeometry x="0.2111" y="2" relative="1" as="geometry">
                        <mxPoint x="-168" y="-8" as="offset"/>
                    </mxGeometry>
                </mxCell>
                <mxCell id="22" value="" style="endArrow=classic;html=1;" edge="1" parent="1">
                    <mxGeometry width="50" height="50" relative="1" as="geometry">
                        <mxPoint x="60" y="760" as="sourcePoint"/>
                        <mxPoint x="420" y="760" as="targetPoint"/>
                    </mxGeometry>
                </mxCell>
                <mxCell id="23" value="PING" style="edgeLabel;html=1;align=center;verticalAlign=middle;resizable=0;points=[];fontSize=13;" vertex="1" connectable="0" parent="22">
                    <mxGeometry x="0.2111" y="2" relative="1" as="geometry">
                        <mxPoint x="-188" y="-8" as="offset"/>
                    </mxGeometry>
                </mxCell>
                <mxCell id="26" value="Ping interval" style="rounded=1;whiteSpace=wrap;html=1;fontSize=13;dashed=1;" vertex="1" parent="1">
                    <mxGeometry x="-40" y="630" width="200" height="60" as="geometry"/>
                </mxCell>
                <mxCell id="28" value="" style="endArrow=classic;html=1;" edge="1" parent="1">
                    <mxGeometry width="50" height="50" relative="1" as="geometry">
                        <mxPoint x="420" y="800" as="sourcePoint"/>
                        <mxPoint x="60" y="800" as="targetPoint"/>
                    </mxGeometry>
                </mxCell>
                <mxCell id="29" value="WHOAREYOU" style="edgeLabel;html=1;align=center;verticalAlign=middle;resizable=0;points=[];fontSize=13;" vertex="1" connectable="0" parent="28">
                    <mxGeometry x="-0.2167" y="-2" relative="1" as="geometry">
                        <mxPoint x="91" y="-8" as="offset"/>
                    </mxGeometry>
                </mxCell>
                <mxCell id="30" value="" style="endArrow=classic;html=1;" edge="1" parent="1">
                    <mxGeometry width="50" height="50" relative="1" as="geometry">
                        <mxPoint x="60" y="920" as="sourcePoint"/>
                        <mxPoint x="420" y="920" as="targetPoint"/>
                    </mxGeometry>
                </mxCell>
                <mxCell id="31" value="Authentication resonse" style="edgeLabel;html=1;align=center;verticalAlign=middle;resizable=0;points=[];fontSize=13;" vertex="1" connectable="0" parent="30">
                    <mxGeometry x="0.2111" y="2" relative="1" as="geometry">
                        <mxPoint x="-148" y="-8" as="offset"/>
                    </mxGeometry>
                </mxCell>
                <mxCell id="32" value="" style="endArrow=classic;html=1;" edge="1" parent="1">
                    <mxGeometry width="50" height="50" relative="1" as="geometry">
                        <mxPoint x="420" y="960" as="sourcePoint"/>
                        <mxPoint x="60" y="960" as="targetPoint"/>
                    </mxGeometry>
                </mxCell>
                <mxCell id="33" value="PONG" style="edgeLabel;html=1;align=center;verticalAlign=middle;resizable=0;points=[];fontSize=13;" vertex="1" connectable="0" parent="32">
                    <mxGeometry x="-0.2167" y="-2" relative="1" as="geometry">
                        <mxPoint x="111" y="-17" as="offset"/>
                    </mxGeometry>
                </mxCell>
                <mxCell id="34" value="&lt;div&gt;Generate a new session.&lt;/div&gt;&lt;div&gt;Update attacker node id in the routing table as &quot;outgoing&quot;.&lt;/div&gt;" style="html=1;dashed=0;whitespace=wrap;fontSize=13;" vertex="1" parent="1">
                    <mxGeometry x="-120" y="830" width="360" height="60" as="geometry"/>
                </mxCell>
                <mxCell id="35" value="Depending on implementations, the attacker node id in &lt;br&gt;the victim's routing table could be updated as &quot;outgoing&quot;." style="shape=note;whiteSpace=wrap;html=1;backgroundOutline=1;darkOpacity=0.05;fontColor=#FF9933;fontSize=13;" vertex="1" parent="1">
                    <mxGeometry x="-470" y="660" width="360" height="110" as="geometry"/>
                </mxCell>
                <mxCell id="36" value="The attacker pretends not to know the victim and sends WHOAREYOU." style="shape=note;whiteSpace=wrap;html=1;backgroundOutline=1;darkOpacity=0.05;fontColor=#FFFF00;" vertex="1" parent="1">
                    <mxGeometry x="560" y="660" width="360" height="110" as="geometry"/>
                </mxCell>
                <mxCell id="38" value="" style="endArrow=none;dashed=1;html=1;dashPattern=1 3;strokeWidth=2;fontSize=13;fontColor=#FF9933;entryX=0;entryY=0;entryDx=0;entryDy=0;exitX=0.5;exitY=1;exitDx=0;exitDy=0;exitPerimeter=0;" edge="1" parent="1" source="35" target="34">
                    <mxGeometry width="50" height="50" relative="1" as="geometry">
                        <mxPoint x="-200" y="710" as="sourcePoint"/>
                        <mxPoint x="-150" y="660" as="targetPoint"/>
                    </mxGeometry>
                </mxCell>
                <mxCell id="39" value="" style="endArrow=none;dashed=1;html=1;dashPattern=1 3;strokeWidth=2;fontSize=13;fontColor=#FF9933;" edge="1" parent="1" target="36">
                    <mxGeometry width="50" height="50" relative="1" as="geometry">
                        <mxPoint x="420" y="790" as="sourcePoint"/>
                        <mxPoint x="-109.99999999999955" y="840" as="targetPoint"/>
                    </mxGeometry>
                </mxCell>
                <mxCell id="40" value="" style="shape=curlyBracket;whiteSpace=wrap;html=1;rounded=1;dashed=1;fontSize=13;fontColor=#FF9933;size=0.17857142857142858;" vertex="1" parent="1">
                    <mxGeometry x="-260" y="240" width="280" height="320" as="geometry"/>
                </mxCell>
                <mxCell id="46" value="&lt;span&gt;The normal flow of handshake&lt;/span&gt;" style="text;html=1;align=center;verticalAlign=middle;resizable=0;points=[];autosize=1;strokeColor=none;fillColor=none;fontSize=13;fontColor=#F0F0F0;" vertex="1" parent="1">
                    <mxGeometry x="-450" y="390" width="190" height="20" as="geometry"/>
                </mxCell>
            </root>
        </mxGraphModel>
    </diagram>
</mxfile>